<svg width="165" height="100" viewBox="0 0 165 100" fill="none" xmlns="http://www.w3.org/2000/svg">
<g clip-path="url(#clip0_546_33)">
<g filter="url(#filter0_d_546_33)">
<path d="M85 86V35.2L84 27.1H130.3C134.767 27.1 138.333 27.6 141 28.6C143.733 29.5333 145.767 30.8333 147.1 32.5C148.5 34.1 149.4 36 149.8 38.2C150.267 40.3333 150.5 42.6 150.5 45V52.9C150.5 56.1 149.967 59.0667 148.9 61.8C147.9 64.4667 146 66.6333 143.2 68.3C140.467 69.9 136.5 70.7 131.3 70.7H124.4C120.2 70.7 116.267 70.6 112.6 70.4C109 70.2 106.3 70.0333 104.5 69.9V86H85ZM104.5 57.1H125.2C127.4 57.1 128.933 56.6667 129.8 55.8C130.667 54.9333 131.1 53.5333 131.1 51.6V46.5C131.1 44.5667 130.7 43.1667 129.9 42.3C129.1 41.3667 127.567 40.9 125.3 40.9H104.5V57.1Z" fill="url(#paint0_linear_546_33)"/>
</g>
<g filter="url(#filter1_d_546_33)">
<path d="M15 86V76.3L59.4 36.8H15V27.2H77.1V36.8L31.8 76.4H76.6L80.6 84.9C80.6 85.1667 79.7 85.4333 77.9 85.7C76.1 85.9 73 86 68.6 86H15Z" fill="black"/>
</g>
<path d="M1.16667 92.5L2.5 91.5C3.75903 90.5557 4.5 89.0738 4.5 87.5V22.9528C4.5 20.6359 6.09173 18.6225 8.34611 18.0878L81.3498 0.772807C82.1062 0.593409 82.894 0.592845 83.6506 0.77116L135 12.8726V10.25C135 9.46311 134.63 8.72214 134 8.25C133.37 7.77786 133 7.03689 133 6.25V3.5H132.5C131.948 3.5 131.5 3.05228 131.5 2.5C131.5 1.94772 131.948 1.5 132.5 1.5H150.5C151.052 1.5 151.5 1.94772 151.5 2.5C151.5 3.05228 151.052 3.5 150.5 3.5H150V6.25C150 7.03689 149.63 7.77786 149 8.25C148.37 8.72214 148 9.46311 148 10.25V15.9363L157.147 18.092C159.405 18.624 161 20.639 161 22.9586V87.5C161 89.0738 161.741 90.5557 163 91.5L164.333 92.5C164.753 92.8148 165 93.3087 165 93.8333C165 94.7538 164.254 95.5 163.333 95.5H160.25C157.627 95.5 155.5 93.3734 155.5 90.75V28.4694C155.5 26.1449 153.898 24.1269 151.634 23.5997L83.634 7.76409C82.888 7.59035 82.112 7.59035 81.366 7.76409L13.366 23.5997C11.102 24.1269 9.5 26.1449 9.5 28.4694V91C9.5 93.4853 7.48528 95.5 5 95.5H2.16667C1.24619 95.5 0.5 94.7538 0.5 93.8333C0.5 93.3087 0.74699 92.8148 1.16667 92.5Z" fill="#13307C"/>
</g>
<defs>
<filter id="filter0_d_546_33" x="59" y="2.10001" width="116.5" height="108.9" filterUnits="userSpaceOnUse" color-interpolation-filters="sRGB">
<feFlood flood-opacity="0" result="BackgroundImageFix"/>
<feColorMatrix in="SourceAlpha" type="matrix" values="0 0 0 0 0 0 0 0 0 0 0 0 0 0 0 0 0 0 127 0" result="hardAlpha"/>
<feOffset/>
<feGaussianBlur stdDeviation="12.5"/>
<feComposite in2="hardAlpha" operator="out"/>
<feColorMatrix type="matrix" values="0 0 0 0 0.00864583 0 0 0 0 0.103543 0 0 0 0 0.345833 0 0 0 0.75 0"/>
<feBlend mode="normal" in2="BackgroundImageFix" result="effect1_dropShadow_546_33"/>
<feBlend mode="normal" in="SourceGraphic" in2="effect1_dropShadow_546_33" result="shape"/>
</filter>
<filter id="filter1_d_546_33" x="11" y="27.2" width="73.5996" height="66.8" filterUnits="userSpaceOnUse" color-interpolation-filters="sRGB">
<feFlood flood-opacity="0" result="BackgroundImageFix"/>
<feColorMatrix in="SourceAlpha" type="matrix" values="0 0 0 0 0 0 0 0 0 0 0 0 0 0 0 0 0 0 127 0" result="hardAlpha"/>
<feOffset dy="4"/>
<feGaussianBlur stdDeviation="2"/>
<feComposite in2="hardAlpha" operator="out"/>
<feColorMatrix type="matrix" values="0 0 0 0 0 0 0 0 0 0 0 0 0 0 0 0 0 0 0.25 0"/>
<feBlend mode="normal" in2="BackgroundImageFix" result="effect1_dropShadow_546_33"/>
<feBlend mode="normal" in="SourceGraphic" in2="effect1_dropShadow_546_33" result="shape"/>
</filter>
<linearGradient id="paint0_linear_546_33" x1="76" y1="22.775" x2="155.709" y2="25.4158" gradientUnits="userSpaceOnUse">
<stop stop-color="#2150CA"/>
<stop offset="1" stop-color="#132E75"/>
</linearGradient>
<clipPath id="clip0_546_33">
<rect width="165" height="100" fill="white"/>
</clipPath>
</defs>
</svg>
